<svg width="15" height="14" viewBox="0 0 15 14" fill="none" xmlns="http://www.w3.org/2000/svg">
<path d="M4.86199 11.6318C4.2251 11.5578 3.63304 11.3998 3.16753 10.971C2.6907 10.5321 2.54949 9.98015 2.57338 9.35073C2.45312 9.35073 2.34083 9.35307 2.22854 9.35073C1.16049 9.32608 0.269263 8.64032 0.0488656 7.66782C0.0157642 7.52112 0.00235598 7.36777 0.00235598 7.21755C-0.000158059 5.52369 -0.000996071 3.82983 0.00151797 2.13596C0.00319399 0.954951 1.00169 0.00982976 2.26625 0.00513545C4.13292 -0.00190602 6.00001 -0.00151482 7.8671 0.00513545C9.13417 0.00943857 10.1272 0.947127 10.1364 2.13088C10.1364 2.1786 10.1364 2.22633 10.1364 2.28696C11.7861 2.31982 12.6668 3.07991 12.6987 4.62864C12.8973 4.65798 13.0846 4.67363 13.2656 4.71431C14.293 4.94629 14.9944 5.76936 14.9965 6.75321C15.0007 8.46155 15.0019 10.1699 14.9965 11.8782C14.9927 13.0592 13.985 13.9946 12.7179 13.9973C10.8563 14.0012 8.99465 14.0004 7.133 13.9973C5.87473 13.9954 4.8733 13.0612 4.86283 11.8876C4.86199 11.8055 4.86283 11.7229 4.86283 11.631L4.86199 11.6318ZM9.91353 13.2114C10.8182 13.2114 11.7228 13.2122 12.6278 13.2114C13.5413 13.2102 14.1451 12.6504 14.1455 11.8019C14.1467 10.1472 14.1467 8.49245 14.1455 6.83771C14.1451 5.98608 13.5455 5.42746 12.6295 5.42667C10.8253 5.42511 9.02104 5.42511 7.2168 5.42667C6.31217 5.42746 5.71089 5.98843 5.71048 6.82988C5.70964 8.48932 5.70964 10.1491 5.71048 11.8086C5.71048 12.6516 6.31091 13.2106 7.21513 13.2114C8.11473 13.2122 9.01392 13.2114 9.91353 13.2114ZM9.27454 2.294C9.35122 1.43534 8.71182 0.800039 7.78917 0.798865C5.97529 0.796518 4.16099 0.796518 2.34711 0.798865C1.45631 0.800039 0.853357 1.36766 0.8521 2.19894C0.851262 2.99424 0.8521 3.78953 0.8521 4.58483C0.8521 5.46305 0.847072 6.34128 0.853776 7.2199C0.860061 8.07779 1.66372 8.69548 2.57422 8.53978C2.57422 8.48971 2.57422 8.43729 2.57422 8.38487C2.57422 7.07242 2.56877 5.75958 2.57924 4.44713C2.58092 4.21671 2.61737 3.9773 2.69112 3.75785C2.98777 2.8714 3.85889 2.29792 4.89509 2.29479C6.2908 2.29087 7.68651 2.29361 9.08222 2.29361C9.14381 2.29361 9.20541 2.29361 9.27454 2.29361V2.294ZM4.86157 10.8553C4.86157 10.7578 4.86157 10.6996 4.86157 10.6417C4.86157 9.36285 4.85989 8.08444 4.86366 6.80563C4.86408 6.64094 4.87665 6.47233 4.91478 6.31233C5.14943 5.32418 6.04484 4.65602 7.14138 4.65289C8.64184 4.64859 10.1427 4.65172 11.6432 4.65172C11.7039 4.65172 11.7643 4.65172 11.8217 4.65172C11.9461 3.78601 11.3247 3.09829 10.3916 3.09164C8.55134 3.07834 6.71064 3.08617 4.87037 3.08812C4.00261 3.08891 3.39002 3.71794 3.40385 4.48781C3.42564 5.68799 3.40929 6.88895 3.40971 8.08952C3.40971 8.60198 3.40427 9.11445 3.41642 9.62691C3.42857 10.1511 3.7114 10.5114 4.2339 10.6964C4.42706 10.7649 4.63363 10.7989 4.86157 10.8553Z" fill="white"/>
</svg>
