<svg width="11" height="15" viewBox="0 0 11 15" fill="none" xmlns="http://www.w3.org/2000/svg">
<path fill-rule="evenodd" clip-rule="evenodd" d="M9.667 4.5H1.333C0.872947 4.5 0.5 4.87295 0.5 5.333V12C0.5 13.3807 1.61929 14.5 3 14.5H8C8.66304 14.5 9.29893 14.2366 9.76777 13.7678C10.2366 13.2989 10.5 12.663 10.5 12V5.333C10.5 4.87295 10.1271 4.5 9.667 4.5Z" stroke="#4C4C4C" stroke-linecap="round" stroke-linejoin="round"/>
<path fill-rule="evenodd" clip-rule="evenodd" d="M8.5 2.5L7.776 1.053C7.60674 0.714271 7.26067 0.500202 6.882 0.5H4.118C3.73933 0.500202 3.39326 0.714271 3.224 1.053L2.5 2.5H8.5Z" stroke="#4C4C4C" stroke-linecap="round" stroke-linejoin="round"/>
<path d="M4.333 7.833C4.333 7.55686 4.10914 7.333 3.833 7.333C3.55686 7.333 3.333 7.55686 3.333 7.833H3.833H4.333ZM3.333 11.166C3.333 11.4421 3.55686 11.666 3.833 11.666C4.10914 11.666 4.333 11.4421 4.333 11.166H3.833H3.333ZM7.667 7.833C7.667 7.55686 7.44314 7.333 7.167 7.333C6.89086 7.333 6.667 7.55686 6.667 7.833H7.167H7.667ZM6.667 11.166C6.667 11.4421 6.89086 11.666 7.167 11.666C7.44314 11.666 7.667 11.4421 7.667 11.166H7.167H6.667ZM8.5 2C8.22386 2 8 2.22386 8 2.5C8 2.77614 8.22386 3 8.5 3V2.5V2ZM10.5 3C10.7761 3 11 2.77614 11 2.5C11 2.22386 10.7761 2 10.5 2V2.5V3ZM2.5 3C2.77614 3 3 2.77614 3 2.5C3 2.22386 2.77614 2 2.5 2V2.5V3ZM0.5 2C0.223858 2 0 2.22386 0 2.5C0 2.77614 0.223858 3 0.5 3V2.5V2ZM3.833 7.833H3.333V11.166H3.833H4.333V7.833H3.833ZM7.167 7.833H6.667V11.166H7.167H7.667V7.833H7.167ZM8.5 2.5V3H10.5V2.5V2H8.5V2.5ZM2.5 2.5V2H0.5V2.5V3H2.5V2.5Z" fill="#4C4C4C"/>
</svg>
