<svg width="13" height="13" viewBox="0 0 13 13" fill="none" xmlns="http://www.w3.org/2000/svg">
<path fill-rule="evenodd" clip-rule="evenodd" d="M1.0632 3.78207C0.513327 3.23223 0.348822 2.40529 0.646394 1.68686C0.943966 0.96843 1.64501 0.5 2.42263 0.5C3.20024 0.5 3.90129 0.96843 4.19886 1.68686C4.49643 2.40529 4.33193 3.23223 3.78206 3.78207C3.03125 4.53283 1.814 4.53283 1.0632 3.78207Z" stroke="#3A3B3F" stroke-linecap="round" stroke-linejoin="round"/>
<path fill-rule="evenodd" clip-rule="evenodd" d="M9.21798 11.937C8.66811 11.3871 8.50361 10.5602 8.80118 9.84177C9.09875 9.12334 9.7998 8.65491 10.5774 8.65491C11.355 8.65491 12.0561 9.12334 12.3536 9.84177C12.6512 10.5602 12.4867 11.3871 11.9368 11.937C11.186 12.6877 9.96879 12.6877 9.21798 11.937V11.937Z" stroke="#3A3B3F" stroke-linecap="round"/>
<path d="M11.9368 1.06323L1.06226 11.9378" stroke="#3A3B3F" stroke-linecap="round"/>
</svg>
