<svg width="19" height="14" viewBox="0 0 19 14" fill="none" xmlns="http://www.w3.org/2000/svg">
<path d="M18.9363 3.25928C18.957 3.23076 18.9777 3.20224 19 3.17583V0.340371C18.8886 0.0828644 18.677 -0.00476217 18.3846 0.000197824C17.97 0.00720977 17.5553 0.00575454 17.1405 0.00429876C16.9684 0.003695 16.7964 0.00309116 16.6243 0.00309116L16.3771 0.00285595C16.1506 0.00253265 15.9242 0.00220952 15.6976 0.00433115C15.5045 0.00639782 15.3481 0.0795577 15.2579 0.241171C15.1757 0.387904 15.1819 0.539184 15.2799 0.679304C15.3868 0.833064 15.5507 0.883077 15.7416 0.883077C16.207 0.882526 16.6723 0.88271 17.1377 0.882893L18.0473 0.883077V2.14829C18.0473 2.23667 18.0464 2.3251 18.0456 2.41352C18.0435 2.62655 18.0415 2.83961 18.0513 3.05225C18.0684 3.4259 18.4745 3.63009 18.7857 3.42301C18.8469 3.3826 18.8916 3.32093 18.9363 3.25928Z" fill="white"/>
<path d="M18.3846 14.0006C18.677 14.0035 18.889 13.918 19 13.6605L19.0004 10.8262C18.9661 10.7943 18.9336 10.7582 18.9012 10.722C18.8308 10.6434 18.7603 10.5648 18.6698 10.5303C18.3487 10.4071 18.0513 10.6415 18.0491 11.0003C18.046 11.437 18.0465 11.874 18.047 12.3109C18.0472 12.5164 18.0474 12.7221 18.0473 12.9276C18.047 12.969 18.0445 13.0104 18.0418 13.0555C18.0406 13.0756 18.0394 13.0968 18.0383 13.1186H17.8173C17.6179 13.1186 17.4185 13.1184 17.2191 13.1182C16.7206 13.1177 16.2217 13.1172 15.7232 13.1198C15.3921 13.1215 15.1851 13.319 15.2075 13.5972C15.2273 13.8382 15.4294 13.9961 15.7344 13.9969C16.0599 13.9977 16.3854 13.9973 16.7109 13.9968C17.2688 13.9961 17.827 13.9954 18.3846 14.0006Z" fill="white"/>
<path d="M6.64747 10.7712C6.64747 11.2387 6.50418 11.3726 6.00289 11.3726C5.92889 11.3726 5.85485 11.3729 5.78079 11.3731C5.60775 11.3736 5.4342 11.3741 5.26129 11.3718C4.94552 11.3677 4.75192 11.1928 4.75147 10.9023C4.74967 8.30241 4.74967 5.70296 4.75147 3.10309C4.75147 2.80425 4.94597 2.63313 5.27656 2.63065C5.55461 2.62817 5.83265 2.629 6.11115 2.63065C6.46376 2.63272 6.64657 2.79971 6.64702 3.12624C6.64798 4.04846 6.6478 4.97067 6.64762 5.89304L6.64747 10.7712Z" fill="white"/>
<path d="M11.3976 10.8283L11.3977 5.89883C11.3979 4.97647 11.3981 4.05382 11.3971 3.13161C11.3971 2.7964 11.2147 2.63189 10.8491 2.63024C10.5895 2.629 10.3299 2.62941 10.0702 2.63024C9.68169 2.63148 9.50111 2.79474 9.50111 3.14856C9.50082 3.64913 9.50092 4.14953 9.50102 4.64998V7.21582C9.50092 8.42564 9.50082 9.63553 9.50111 10.8452C9.50111 11.2106 9.67854 11.3718 10.0792 11.3726C10.2395 11.3729 10.3996 11.3728 10.5597 11.3727L10.8024 11.3726C11.2309 11.3722 11.3976 11.2205 11.3976 10.8283Z" fill="white"/>
<path d="M16.1472 10.7878C16.1472 11.2371 15.9981 11.3722 15.5027 11.3722C15.4286 11.3722 15.3545 11.3725 15.2804 11.3727C15.1073 11.3732 14.9339 11.3737 14.761 11.3714C14.4453 11.3673 14.2512 11.1924 14.2512 10.9019C14.2494 8.302 14.2494 5.70255 14.2512 3.10268C14.2512 2.80384 14.4457 2.63272 14.7763 2.62983C15.0544 2.62735 15.3324 2.62818 15.6109 2.62983C15.9635 2.6319 16.1468 2.79888 16.1472 3.125C16.1482 4.04696 16.148 4.96892 16.1478 5.89102L16.1472 10.7878Z" fill="white"/>
<path d="M2.85355 6.02709L2.85411 10.3592C2.85411 10.414 2.85362 10.469 2.85314 10.5239C2.85182 10.6741 2.8505 10.8243 2.85905 10.9738C2.87118 11.1949 3.07286 11.3644 3.31093 11.3714C3.55618 11.3788 3.7646 11.2123 3.7911 10.9837C3.79801 10.9224 3.79793 10.8604 3.79786 10.7986L3.79785 3.19814C3.79793 3.13575 3.798 3.07285 3.7902 3.01133C3.76775 2.83649 3.66174 2.71911 3.48431 2.65876C3.15461 2.54716 2.855 2.76457 2.85456 3.12045C2.85321 4.08921 2.85338 5.05821 2.85355 6.02709Z" fill="white"/>
<path d="M7.60332 6.99962C7.60332 5.72558 7.60332 4.45154 7.60422 3.17749L7.60422 3.16856C7.60418 3.09236 7.60415 3.01346 7.62533 2.94107C7.68373 2.74225 7.90113 2.61247 8.12123 2.63272C8.34537 2.65339 8.51921 2.81252 8.54167 3.02291C8.54813 3.08391 8.54805 3.14559 8.54797 3.20703L8.54795 10.7737L8.54798 10.7971C8.54808 10.8518 8.54818 10.9068 8.54346 10.9614C8.52235 11.2024 8.31932 11.3764 8.06688 11.3718C7.81489 11.3673 7.61006 11.1875 7.60692 10.9457C7.60192 10.5531 7.6026 10.1604 7.60329 9.76772C7.60353 9.63121 7.60377 9.49453 7.60377 9.35806L7.60332 6.99962Z" fill="white"/>
<path d="M12.3534 10.2381C12.3536 10.3067 12.3531 10.3755 12.3527 10.4442C12.3515 10.6203 12.3504 10.7964 12.3588 10.9721C12.3696 11.1999 12.5825 11.3727 12.8273 11.3718C13.0658 11.371 13.2644 11.2073 13.2909 10.9858C13.2982 10.9242 13.2982 10.8619 13.2981 10.7998L13.2981 3.20777C13.2981 3.14295 13.2981 3.07781 13.2904 3.01342C13.2689 2.83858 13.1629 2.72036 12.9859 2.6596C12.6566 2.54635 12.3543 2.76335 12.3539 3.1184C12.3522 4.05338 12.3525 4.98813 12.3528 5.92299L12.3534 10.2381Z" fill="white"/>
<path d="M0.953167 0.883734V1.49629C0.953167 1.64093 0.95346 1.78557 0.953753 1.93021C0.954487 2.29187 0.95522 2.65363 0.95137 3.01529C0.948226 3.3162 0.742051 3.51253 0.458616 3.50179C0.213362 3.49269 0.00718693 3.31868 0.0053902 3.08597C-0.00179673 2.19896 -0.00179673 1.31112 0.0053902 0.424108C0.00718693 0.185201 0.206624 0.00994823 0.477033 0.00788157C1.42256 0.00126824 2.36809 0.00126824 3.31407 0.00746823C3.60335 0.00912156 3.79739 0.200495 3.7947 0.449321C3.792 0.702694 3.58987 0.880841 3.28398 0.882494C2.78479 0.885422 2.28583 0.884824 1.78677 0.884226C1.58125 0.88398 1.3757 0.883734 1.17012 0.883734H0.953167Z" fill="white"/>
<path d="M0.953615 13.1186H1.17866C1.36735 13.1186 1.55604 13.1185 1.74474 13.1184C2.24826 13.1181 2.75185 13.1179 3.25568 13.1194C3.58807 13.1202 3.79649 13.2942 3.79515 13.5608C3.7938 13.8266 3.58493 13.9969 3.25029 13.9977C2.34788 13.9994 1.44547 13.9998 0.543061 13.9977C0.191351 13.9969 0.00269378 13.8229 0.00179541 13.503C0 12.6668 0.000447864 11.8306 0.00179541 10.994C0.0022446 10.7035 0.1918 10.5051 0.467598 10.5001C0.750135 10.4947 0.95047 10.6927 0.952267 10.9953C0.955155 11.4464 0.954605 11.8973 0.954055 12.3483C0.953835 12.5287 0.953615 12.7091 0.953615 12.8896V13.1186Z" fill="white"/>
</svg>
